<svg width="66" height="67" viewBox="0 0 66 67" fill="none" xmlns="http://www.w3.org/2000/svg">
<path fill-rule="evenodd" clip-rule="evenodd" d="M33.9732 3.58542L55.8744 11.0491C56.4094 11.236 56.8477 11.8483 56.8348 12.4155V43.5077C56.8348 44.0813 56.4674 44.829 56.0227 45.177L33.8057 62.4891C33.5865 62.6632 33.29 62.7534 32.9936 62.7534C32.6971 62.7534 32.407 62.6632 32.1814 62.4891L9.96445 45.177C9.51973 44.8225 9.15234 44.0749 9.15234 43.5077V12.4155C9.15234 11.8483 9.59063 11.2296 10.1256 11.0491L32.0268 3.58542C32.291 3.49519 32.6455 3.45007 33 3.45007C33.3545 3.45007 33.709 3.49519 33.9732 3.58542ZM33 57.2362L52.207 42.2702V14.71L33 8.1616L13.793 14.71V42.2702L33 57.2362Z" fill="#ED4C5C"/>
<path fill-rule="evenodd" clip-rule="evenodd" d="M25.9682 34.1813L20.973 39.1764C20.8771 39.2734 20.8233 39.4042 20.8233 39.5406C20.8233 39.677 20.8771 39.8078 20.973 39.9048L23.1645 42.0962C23.3643 42.296 23.693 42.296 23.8928 42.0962L28.8879 37.101C32.4779 39.3634 37.2732 38.9315 40.3992 35.8055C44.0279 32.1768 44.0279 26.2987 40.3992 22.67C36.7705 19.0413 30.8924 19.0413 27.2637 22.67C24.1377 25.796 23.7059 30.5977 25.9682 34.1813ZM37.4795 25.5897C35.4686 23.5723 32.2008 23.5723 30.1834 25.5897C28.166 27.6071 28.1725 30.8684 30.1834 32.8858C32.1943 34.9032 35.4621 34.9032 37.4795 32.8858C39.4969 30.8749 39.4969 27.6071 37.4795 25.5897Z" fill="#ED4C5C"/>
</svg>
